<svg width="32" height="32" viewBox="0 0 32 32" fill="none" xmlns="http://www.w3.org/2000/svg">
<path fill-rule="evenodd" clip-rule="evenodd" d="M16 1.33333C7.9 1.33333 1.33333 7.9 1.33333 16C1.33333 24.1 7.9 30.6667 16 30.6667C24.1 30.6667 30.6667 24.1 30.6667 16C30.6667 7.9 24.1 1.33333 16 1.33333ZM17.3333 21.3333C17.3333 21.687 17.1929 22.0261 16.9428 22.2761C16.6928 22.5262 16.3536 22.6667 16 22.6667C15.6464 22.6667 15.3072 22.5262 15.0572 22.2761C14.8071 22.0261 14.6667 21.687 14.6667 21.3333V17.3333H10.6667C10.313 17.3333 9.9739 17.1929 9.72385 16.9428C9.4738 16.6928 9.33333 16.3536 9.33333 16C9.33333 15.6464 9.4738 15.3072 9.72385 15.0572C9.9739 14.8071 10.313 14.6667 10.6667 14.6667H14.6667V10.6667C14.6667 10.313 14.8071 9.97391 15.0572 9.72386C15.3072 9.47381 15.6464 9.33333 16 9.33333C16.3536 9.33333 16.6928 9.47381 16.9428 9.72386C17.1929 9.97391 17.3333 10.313 17.3333 10.6667V14.6667H21.3333C21.687 14.6667 22.0261 14.8071 22.2761 15.0572C22.5262 15.3072 22.6667 15.6464 22.6667 16C22.6667 16.3536 22.5262 16.6928 22.2761 16.9428C22.0261 17.1929 21.687 17.3333 21.3333 17.3333H17.3333V21.3333Z" fill="#333333"/>
</svg>
