<svg width="327" height="255" viewBox="0 0 327 255" fill="none" xmlns="http://www.w3.org/2000/svg">
<g clip-path="url(#clip0_6_32)">
<path d="M167.411 120.743H134.122C125.991 120.743 119.4 127.335 119.4 135.466V345.283C119.4 353.414 125.991 360.006 134.122 360.006H167.411C175.542 360.006 182.133 353.414 182.133 345.283V135.466C182.133 127.335 175.542 120.743 167.411 120.743Z" stroke="#444444" stroke-opacity="0.4" stroke-width="8.89583" stroke-linecap="round" stroke-linejoin="round"/>
<path d="M119.4 165.605H182.133" stroke="#444444" stroke-opacity="0.4" stroke-width="8.89583" stroke-linecap="round" stroke-linejoin="round"/>
<path d="M230.144 120.743H196.856C188.725 120.743 182.133 127.335 182.133 135.466V345.283C182.133 353.414 188.725 360.006 196.856 360.006H230.144C238.275 360.006 244.867 353.414 244.867 345.283V135.466C244.867 127.335 238.275 120.743 230.144 120.743Z" stroke="#444444" stroke-opacity="0.4" stroke-width="8.89583" stroke-linecap="round" stroke-linejoin="round"/>
<path d="M182.133 165.605H244.867" stroke="#444444" stroke-opacity="0.4" stroke-width="8.89583" stroke-linecap="round" stroke-linejoin="round"/>
<path d="M292.878 120.743H259.589C251.458 120.743 244.867 127.335 244.867 135.466V345.283C244.867 353.414 251.458 360.006 259.589 360.006H292.878C301.009 360.006 307.6 353.414 307.6 345.283V135.466C307.6 127.335 301.009 120.743 292.878 120.743Z" stroke="#444444" stroke-opacity="0.4" stroke-width="8.89583" stroke-linecap="round" stroke-linejoin="round"/>
<path d="M244.867 165.605H307.6M333.7 151.247C333.7 79.9024 284.853 40.0312 213.5 40.0312C142.146 40.0312 93.2995 79.8935 93.2995 151.247M84.546 151.247H93.2995V235.873H84.546C76.849 235.873 69.4672 232.816 64.0238 227.374C58.5805 221.933 55.5212 214.552 55.5189 206.855V180.274C55.5189 172.576 58.5771 165.192 64.0207 159.749C69.4643 154.305 76.8475 151.247 84.546 151.247V151.247ZM502.766 250.24H494.012V165.614H502.766C510.463 165.614 517.844 168.671 523.288 174.112C528.731 179.554 531.79 186.935 531.793 194.632V221.213C531.793 228.911 528.735 236.294 523.291 241.738C517.847 247.182 510.464 250.24 502.766 250.24V250.24Z" stroke="#444444" stroke-opacity="0.4" stroke-width="8.89583" stroke-linecap="round" stroke-linejoin="round"/>
</g>
<defs>
<clipPath id="clip0_6_32">
<rect width="427" height="427" fill="white"/>
</clipPath>
</defs>
</svg>
